<?xml version="1.0" standalone="no"?>
<!DOCTYPE svg PUBLIC "-//W3C//DTD SVG 20010904//EN"
 "http://www.w3.org/TR/2001/REC-SVG-20010904/DTD/svg10.dtd">
<svg version="1.0" xmlns="http://www.w3.org/2000/svg"
 width="1280.000000pt" height="916.000000pt" viewBox="0 0 1280.000000 916.000000"
 preserveAspectRatio="xMidYMid meet">
<g transform="translate(0.000000,916.000000) scale(0.100000,-0.100000)"
fill="#000000" stroke="none">
<path d="M7825 9150 c-27 -5 -102 -9 -166 -9 -140 -1 -505 -26 -684 -47 -483
-55 -800 -152 -936 -284 -52 -50 -54 -57 -83 -265 -58 -424 -280 -747 -642
-933 -243 -124 -436 -170 -871 -207 -195 -16 -322 -19 -397 -9 -53 8 -52 6
-86 121 -23 83 -59 124 -157 183 l-57 35 -611 0 c-607 0 -744 -6 -1065 -41
-148 -16 -284 -40 -315 -56 -44 -23 -117 -85 -136 -115 -14 -23 -23 -62 -30
-128 -4 -53 -13 -104 -18 -114 -13 -23 -29 -26 -276 -56 -467 -57 -715 -144
-838 -296 -57 -72 -119 -313 -151 -584 -51 -433 -170 -2214 -151 -2245 4 -7
742 -10 2245 -10 2123 0 2240 1 2248 18 5 9 15 53 21 97 7 44 28 143 46 220
220 921 830 1709 1666 2150 471 249 924 368 1449 382 319 8 543 -12 820 -74
1303 -289 2317 -1352 2540 -2663 7 -41 18 -81 23 -88 8 -9 172 -12 786 -10
l776 3 -1 80 c-2 154 -24 623 -39 826 -61 816 -157 1335 -303 1639 -87 180
-360 371 -747 523 -166 65 -312 109 -569 172 -277 68 -413 127 -560 246 -257
206 -384 493 -405 915 -8 150 -10 166 -35 208 -100 170 -460 295 -1036 360
-346 39 -1141 74 -1255 56z m3663 -2420 c69 -16 130 -49 189 -103 69 -64 108
-132 129 -226 14 -63 15 -84 5 -141 -27 -147 -109 -258 -238 -322 -64 -31 -73
-33 -178 -33 -106 0 -113 2 -180 34 -219 108 -302 350 -195 568 85 173 281
266 468 223z"/>
<path d="M7785 6394 c-335 -32 -496 -64 -727 -143 -160 -55 -207 -74 -350
-147 -255 -128 -470 -279 -670 -472 -448 -433 -720 -959 -820 -1586 -19 -119
-22 -180 -22 -396 0 -258 9 -362 50 -560 170 -813 705 -1515 1441 -1888 289
-147 539 -226 873 -279 178 -27 607 -25 790 6 475 78 878 249 1258 533 142
107 419 387 531 538 433 582 619 1292 526 2005 -163 1239 -1134 2206 -2381
2370 -116 15 -419 27 -499 19z m-623 -1353 c42 -11 109 -34 150 -50 221 -93
442 -308 573 -558 22 -42 45 -78 50 -80 6 -1 36 44 69 102 161 286 389 476
673 561 119 36 338 45 464 19 422 -85 719 -427 803 -925 24 -143 30 -310 17
-429 -47 -396 -249 -662 -749 -981 -497 -318 -630 -418 -863 -650 -154 -153
-233 -246 -317 -372 -54 -81 -79 -102 -107 -92 -9 4 -42 46 -74 93 -91 136
-175 236 -301 361 -197 195 -347 310 -668 506 -271 166 -415 264 -535 364
-210 176 -341 373 -404 608 -24 89 -27 113 -27 297 0 223 13 319 65 490 127
411 404 679 777 750 104 20 301 13 404 -14z"/>
<path d="M11227 3338 c-3 -13 -11 -63 -17 -113 -31 -261 -120 -593 -221 -832
-175 -416 -411 -767 -723 -1078 -514 -512 -1147 -828 -1876 -936 -175 -26
-543 -36 -735 -20 -1055 88 -2006 678 -2556 1586 -234 387 -382 808 -447 1275
l-18 125 -2256 3 -2256 2 -6 -42 c-12 -90 -18 -1296 -7 -1543 19 -441 38 -701
77 -1055 53 -480 106 -597 296 -654 45 -13 117 -32 158 -41 69 -15 533 -16
5470 -13 l5395 3 165 38 c466 105 759 217 898 342 70 64 97 114 111 205 14 92
39 408 51 655 5 116 12 237 15 270 3 33 10 211 16 395 6 184 15 470 20 635 6
165 12 416 15 558 l5 257 -784 0 -785 0 -5 -22z"/>
</g>
</svg>
